<?xml version="1.0" encoding="UTF-8" standalone="no"?>
<!-- Created with Inkscape (http://www.inkscape.org/) -->

<svg
   width="900mm"
   height="750mm"
   viewBox="0 0 900 750"
   version="1.1"
   id="svg5"
   inkscape:version="1.2.1 (9c6d41e410, 2022-07-14)"
   sodipodi:docname="logo myframework ts.svg"
   inkscape:export-filename="..\Desktop\logo myframework_mini.png"
   inkscape:export-xdpi="1"
   inkscape:export-ydpi="1"
   xmlns:inkscape="http://www.inkscape.org/namespaces/inkscape"
   xmlns:sodipodi="http://sodipodi.sourceforge.net/DTD/sodipodi-0.dtd"
   xmlns="http://www.w3.org/2000/svg"
   xmlns:svg="http://www.w3.org/2000/svg">
  <sodipodi:namedview
     id="namedview7"
     pagecolor="#ffffff"
     bordercolor="#000000"
     borderopacity="0.25"
     inkscape:showpageshadow="2"
     inkscape:pageopacity="0.0"
     inkscape:pagecheckerboard="0"
     inkscape:deskcolor="#d1d1d1"
     inkscape:document-units="mm"
     showgrid="false"
     showguides="true"
     inkscape:zoom="0.082678074"
     inkscape:cx="1239.7483"
     inkscape:cy="2019.8826"
     inkscape:window-width="1366"
     inkscape:window-height="705"
     inkscape:window-x="-8"
     inkscape:window-y="-8"
     inkscape:window-maximized="1"
     inkscape:current-layer="layer1">
    <sodipodi:guide
       position="848.04326,111.56743"
       orientation="1,0"
       id="guide186"
       inkscape:locked="false" />
    <sodipodi:guide
       position="824.04204,47.564168"
       orientation="0,-1"
       id="guide2576"
       inkscape:locked="false" />
  </sodipodi:namedview>
  <defs
     id="defs2">
    <rect
       x="36.285315"
       y="2999.5861"
       width="4946.898"
       height="1463.5077"
       id="rect332" />
    <inkscape:path-effect
       effect="spiro"
       id="path-effect381"
       is_visible="true"
       lpeversion="1" />
    <inkscape:path-effect
       effect="simplify"
       id="path-effect379"
       is_visible="true"
       lpeversion="1"
       steps="1"
       threshold="0.00192982"
       smooth_angles="360"
       helper_size="0"
       simplify_individual_paths="false"
       simplify_just_coalesce="false" />
    <inkscape:path-effect
       effect="spiro"
       id="path-effect375"
       is_visible="true"
       lpeversion="1" />
    <inkscape:path-effect
       effect="simplify"
       id="path-effect373"
       is_visible="true"
       lpeversion="1"
       steps="1"
       threshold="0.00192982"
       smooth_angles="360"
       helper_size="0"
       simplify_individual_paths="false"
       simplify_just_coalesce="false" />
    <inkscape:path-effect
       effect="spiro"
       id="path-effect369"
       is_visible="true"
       lpeversion="1" />
    <inkscape:path-effect
       effect="simplify"
       id="path-effect367"
       is_visible="true"
       lpeversion="1"
       steps="1"
       threshold="0.00192982"
       smooth_angles="360"
       helper_size="0"
       simplify_individual_paths="false"
       simplify_just_coalesce="false" />
    <inkscape:path-effect
       effect="spiro"
       id="path-effect363"
       is_visible="true"
       lpeversion="1" />
    <inkscape:path-effect
       effect="simplify"
       id="path-effect361"
       is_visible="true"
       lpeversion="1"
       steps="1"
       threshold="0.00192982"
       smooth_angles="360"
       helper_size="0"
       simplify_individual_paths="false"
       simplify_just_coalesce="false" />
    <clipPath
       clipPathUnits="userSpaceOnUse"
       id="clipPath2163">
      <path
         id="path2165"
         style="fill:#ff0000;fill-opacity:1;fill-rule:nonzero;stroke:none;stroke-width:0.264583"
         d="M 155.07219,-374.2862 V 75.348888 H 459.36006 V -65.313843 c -0.38828,-0.05703 -0.77081,-0.164571 -1.14411,-0.326594 -0.17219,-0.07474 -0.33584,-0.167426 -0.50385,-0.251148 -0.7185,-0.405458 -1.34302,-0.943975 -1.92802,-1.519803 -0.49924,-0.520751 -0.91638,-1.110293 -1.30175,-1.717726 -0.44807,-0.727591 -0.6841,-1.543362 -0.8356,-2.376598 -0.0485,-0.333021 -0.0546,-0.371589 -0.0517,-0.352433 -0.005,-0.01389 -0.0109,-0.02946 -0.0146,-0.03772 -0.0631,-0.144817 -0.13097,-0.288031 -0.18447,-0.436666 -0.16176,-0.449001 -0.26461,-0.888601 -0.28371,-1.373561 -0.0127,-0.320249 0.0354,-0.640146 0.0532,-0.960146 0.2055,-1.252622 0.79346,-2.348482 1.50638,-3.378608 0.79007,-1.046379 1.6325,-2.051568 2.43551,-3.087666 0.73139,-0.943679 1.50329,-1.581338 2.25256,-1.962671 V -374.2862 Z m 298.49238,302.190343 c 0,0.0071 0.006,0.0303 0.0109,0.04961 -0.003,-0.01699 -1.3e-4,-0.01032 -0.004,-0.02946 0,-0.007 -0.008,-0.02714 -0.007,-0.02016 z" />
    </clipPath>
    <clipPath
       clipPathUnits="userSpaceOnUse"
       id="clipPath2163-9">
      <path
         id="path2165-1"
         style="fill:#ff0000;fill-opacity:1;fill-rule:nonzero;stroke:none;stroke-width:0.264583"
         d="M 155.07219,-374.2862 V 75.348888 H 459.36006 V -65.313843 c -0.38828,-0.05703 -0.77081,-0.164571 -1.14411,-0.326594 -0.17219,-0.07474 -0.33584,-0.167426 -0.50385,-0.251148 -0.7185,-0.405458 -1.34302,-0.943975 -1.92802,-1.519803 -0.49924,-0.520751 -0.91638,-1.110293 -1.30175,-1.717726 -0.44807,-0.727591 -0.6841,-1.543362 -0.8356,-2.376598 -0.0485,-0.333021 -0.0546,-0.371589 -0.0517,-0.352433 -0.005,-0.01389 -0.0109,-0.02946 -0.0146,-0.03772 -0.0631,-0.144817 -0.13097,-0.288031 -0.18447,-0.436666 -0.16176,-0.449001 -0.26461,-0.888601 -0.28371,-1.373561 -0.0127,-0.320249 0.0354,-0.640146 0.0532,-0.960146 0.2055,-1.252622 0.79346,-2.348482 1.50638,-3.378608 0.79007,-1.046379 1.6325,-2.051568 2.43551,-3.087666 0.73139,-0.943679 1.50329,-1.581338 2.25256,-1.962671 V -374.2862 Z m 298.49238,302.190343 c 0,0.0071 0.006,0.0303 0.0109,0.04961 -0.003,-0.01699 -1.3e-4,-0.01032 -0.004,-0.02946 0,-0.007 -0.008,-0.02714 -0.007,-0.02016 z" />
    </clipPath>
    <clipPath
       clipPathUnits="userSpaceOnUse"
       id="clipPath2163-1">
      <path
         id="path2165-4"
         style="fill:#ff0000;fill-opacity:1;fill-rule:nonzero;stroke:none;stroke-width:0.264583"
         d="M 155.07219,-374.2862 V 75.348888 H 459.36006 V -65.313843 c -0.38828,-0.05703 -0.77081,-0.164571 -1.14411,-0.326594 -0.17219,-0.07474 -0.33584,-0.167426 -0.50385,-0.251148 -0.7185,-0.405458 -1.34302,-0.943975 -1.92802,-1.519803 -0.49924,-0.520751 -0.91638,-1.110293 -1.30175,-1.717726 -0.44807,-0.727591 -0.6841,-1.543362 -0.8356,-2.376598 -0.0485,-0.333021 -0.0546,-0.371589 -0.0517,-0.352433 -0.005,-0.01389 -0.0109,-0.02946 -0.0146,-0.03772 -0.0631,-0.144817 -0.13097,-0.288031 -0.18447,-0.436666 -0.16176,-0.449001 -0.26461,-0.888601 -0.28371,-1.373561 -0.0127,-0.320249 0.0354,-0.640146 0.0532,-0.960146 0.2055,-1.252622 0.79346,-2.348482 1.50638,-3.378608 0.79007,-1.046379 1.6325,-2.051568 2.43551,-3.087666 0.73139,-0.943679 1.50329,-1.581338 2.25256,-1.962671 V -374.2862 Z m 298.49238,302.190343 c 0,0.0071 0.006,0.0303 0.0109,0.04961 -0.003,-0.01699 -1.3e-4,-0.01032 -0.004,-0.02946 0,-0.007 -0.008,-0.02714 -0.007,-0.02016 z" />
    </clipPath>
  </defs>
  <g
     inkscape:label="Capa 1"
     inkscape:groupmode="layer"
     id="layer1">
    <path
       id="rect2005"
       style="fill:#007acc;fill-opacity:1;stroke:#000000;stroke-width:0.434107;stroke-linecap:round;stroke-linejoin:round;stroke-opacity:1"
       d="M 0.21704102 0.21704102 L 0.21704102 749.78317 L 349.4102 749.78317 L 349.4102 647.38632 L 152.23257 445.6281 L 152.49819 445.363 A 103.83527 104.66162 0 0 1 124.20379 373.59477 A 103.83527 104.66162 0 0 1 228.03931 268.93294 A 103.83527 104.66162 0 0 1 300.11191 298.25931 L 300.24524 298.12651 L 450.16374 448.42999 L 599.48434 296.30284 L 599.79853 296.62117 A 106.94509 107.7962 0 0 1 669.69659 270.31115 A 106.94509 107.7962 0 0 1 776.642 378.10715 A 106.94509 107.7962 0 0 1 750.27617 448.87079 L 750.45135 449.04804 L 748.10576 451.41224 A 106.94509 107.7962 0 0 1 742.4229 457.14057 L 549.30807 651.79226 L 549.30807 749.78317 L 899.7828 749.78317 L 899.7828 0.21704102 L 608.02697 0.21704102 L 608.02697 3.681429 L 604.62718 0.21704102 L 598.98101 0.21704102 L 451.90782 147.66799 L 303.94631 0.21704102 L 0.21704102 0.21704102 z M 807.50627 594.76783 C 814.25864 594.76783 820.91884 595.43354 827.48748 596.76564 C 834.10205 598.05181 839.82093 599.68266 844.64405 601.65785 L 844.64405 625.29103 L 841.81942 625.29103 C 837.68531 621.98375 832.60935 619.22766 826.59192 617.0228 C 820.62044 614.77201 814.51094 613.64678 808.26384 613.64678 C 806.05899 613.64678 803.85412 613.80738 801.64926 614.12892 C 799.49034 614.40453 797.40048 614.95575 795.37936 615.78257 C 793.58791 616.47159 792.04927 617.52843 790.7631 618.9524 C 789.47694 620.33044 788.83402 621.91519 788.83402 623.70663 C 788.83402 626.41677 789.86704 628.50663 791.93409 629.97653 C 794.00114 631.4005 797.90577 632.70965 803.64759 633.90394 C 807.41422 634.68483 811.01993 635.44275 814.46501 636.17771 C 817.95604 636.91266 821.70007 637.9234 825.69637 639.20956 C 833.55117 641.7819 839.33896 645.29591 843.05965 649.75155 C 846.82628 654.16127 848.70944 659.90294 848.70944 666.97686 C 848.70944 677.08245 844.41471 685.30461 835.82495 691.64357 C 827.28113 697.9366 815.65946 701.0833 800.96041 701.0833 C 792.46253 701.0833 785.0444 700.34818 778.70544 698.87827 C 772.41241 697.36243 766.50962 695.45597 760.99748 693.15924 L 760.99748 668.56126 L 763.89136 668.56126 C 769.35757 672.92504 775.46706 676.27845 782.21944 678.62111 C 789.01775 680.96377 795.54014 682.13511 801.78724 682.13511 C 803.39494 682.13511 805.50812 681.9973 808.12638 681.7217 C 810.74465 681.44609 812.88062 680.98657 814.53426 680.34349 C 816.55538 679.51666 818.20903 678.48313 819.4952 677.2429 C 820.8273 676.00267 821.49301 674.16562 821.49301 671.73109 C 821.49301 669.4803 820.52838 667.55104 818.59913 665.94333 C 816.71581 664.28969 813.93693 663.02665 810.26217 662.1539 C 806.40367 661.23521 802.31565 660.38507 797.9978 659.60418 C 793.72589 658.77736 789.70677 657.74383 785.94014 656.5036 C 777.30445 653.70159 771.07994 649.91197 767.26738 645.13478 C 763.50075 640.31166 761.61759 634.34048 761.61759 627.22063 C 761.61759 617.66625 765.88953 609.8803 774.43335 603.86288 C 783.02311 597.79953 794.04745 594.76783 807.50627 594.76783 z M 660.12508 596.62818 L 750.66219 596.62818 L 750.66219 616.47193 L 718.6228 616.47193 L 718.6228 699.22295 L 692.16447 699.22295 L 692.16447 616.47193 L 660.12508 616.47193 L 660.12508 596.62818 z "
       inkscape:export-filename="..\Desktop\logo big.png"
       inkscape:export-xdpi="28.222227"
       inkscape:export-ydpi="28.222227" />
  </g>
</svg>
